<?xml version="1.0" encoding="utf-8"?>
<!-- Generator: Adobe Illustrator 24.0.1, SVG Export Plug-In . SVG Version: 6.00 Build 0)  -->
<svg version="1.1" id="Layer_1" xmlns="http://www.w3.org/2000/svg" xmlns:xlink="http://www.w3.org/1999/xlink" x="0px" y="0px"
	 viewBox="0 0 167.5 71.9" style="enable-background:new 0 0 167.5 71.9;" xml:space="preserve">
<style type="text/css">
	.st0{fill:url(#SVGID_1_);}
	.st1{fill:url(#SVGID_2_);}
</style>
<g>
	<g>
		<g>
			<path d="M24.1,70c0,0.6-0.1,1.1-0.4,1.4c-0.3,0.3-0.7,0.5-1.3,0.5c-0.3,0-0.5,0-0.8-0.1l0.1-1.1c0.2,0.1,0.4,0.1,0.6,0.1
				c0.3,0,0.5-0.1,0.6-0.2c0.1-0.1,0.2-0.4,0.2-0.7v-5.8h1.2V70z"/>
			<path d="M31.9,65.2h-2.1v2.2h1.7v1.1h-1.7v2.3h2.1v1.1h-3.3v-7.7h3.3V65.2z"/>
			<path d="M40.6,71.8h-1.2l-0.7-4.6h0l-0.7,4.6h-1.2l-1.2-7.7h1.2l0.7,5.1h0l0.7-5.1h1l0.7,5.1h0l0.7-5.1h1.2L40.6,71.8z"/>
			<path d="M49.2,65.2h-2.1v2.2h1.7v1.1h-1.7v2.3h2.1v1.1h-3.3v-7.7h3.3V65.2z"/>
			<path d="M54.6,70.7h1.9v1.1h-3.1v-7.7h1.2V70.7z"/>
			<path d="M63.2,71.8l-0.9-3.2h-0.5v3.2h-1.2v-7.7h1.7c0.6,0,1.1,0.2,1.4,0.5c0.3,0.3,0.5,0.8,0.5,1.4v0.5c0,0.8-0.3,1.4-0.8,1.7
				l1.1,3.5H63.2z M61.7,65.2v2.3h0.5c0.3,0,0.5-0.1,0.6-0.2c0.1-0.2,0.2-0.4,0.2-0.7v-0.4c0-0.3-0.1-0.6-0.2-0.7
				c-0.1-0.2-0.3-0.2-0.6-0.2H61.7z"/>
			<path d="M70.5,68.3v3.5h-1.2v-3.5l-1.6-4.2h1.2l1,2.7h0l0.9-2.7H72L70.5,68.3z"/>
			<path d="M83.8,64.4c0.3,0.3,0.4,0.7,0.4,1.2v0.1c0,0.4-0.1,0.7-0.3,1c-0.2,0.3-0.5,0.7-0.9,1.1l0.8,1.2h0v-1.1l1,0.1v1.3
				c0,0.5-0.1,0.9-0.2,1.1l0.9,1.4h-1.4L84,71.4c-0.3,0.3-0.8,0.5-1.3,0.5c-0.6,0-1.1-0.2-1.4-0.5C81,71,80.8,70.6,80.8,70v-0.3
				c0-0.4,0.1-0.7,0.2-1c0.1-0.3,0.3-0.6,0.7-1c-0.3-0.4-0.4-0.8-0.5-1.1c-0.1-0.3-0.1-0.6-0.1-0.9v-0.1c0-0.6,0.1-1,0.4-1.3
				c0.3-0.3,0.7-0.4,1.2-0.4C83.1,64,83.5,64.1,83.8,64.4z M82.2,68.7c-0.1,0.2-0.2,0.4-0.2,0.5c0,0.2-0.1,0.3-0.1,0.5v0.2
				c0,0.3,0.1,0.5,0.2,0.7c0.1,0.1,0.3,0.2,0.6,0.2c0.3,0,0.5-0.1,0.7-0.3L82.2,68.7L82.2,68.7z M82.2,65.2
				c-0.1,0.1-0.1,0.3-0.1,0.5v0.1c0,0.2,0,0.3,0.1,0.5c0.1,0.2,0.2,0.4,0.3,0.7h0c0.2-0.3,0.4-0.5,0.5-0.7c0.1-0.2,0.1-0.3,0.1-0.5
				v-0.1c0-0.2,0-0.4-0.1-0.5c-0.1-0.1-0.2-0.2-0.4-0.2C82.4,65,82.3,65.1,82.2,65.2z"/>
			<path d="M99.3,71.8h-1.2l-0.7-4.6h0l-0.7,4.6h-1.2l-1.2-7.7h1.2l0.7,5.1h0l0.7-5.1h1l0.7,5.1h0l0.7-5.1h1.2L99.3,71.8z"/>
			<path d="M108,71.8h-1.2l-0.3-1.7h-1.3l-0.3,1.7h-1.2l1.3-7.7h1.5L108,71.8z M105.9,65.7l-0.5,3.2h1L105.9,65.7L105.9,65.7z"/>
			<path d="M114.9,65.2h-1.2v6.6h-1.2v-6.6h-1.2v-1.1h3.6V65.2z"/>
			<path d="M121.9,64.5c0.3,0.3,0.5,0.8,0.5,1.4v0.7l-1.1,0.1v-0.6c0-0.6-0.2-0.9-0.7-0.9c-0.2,0-0.4,0.1-0.5,0.2
				c-0.1,0.1-0.2,0.3-0.2,0.6V70c0,0.3,0.1,0.4,0.2,0.6c0.1,0.1,0.3,0.2,0.5,0.2c0.4,0,0.7-0.3,0.7-0.9V69l1.1,0.1V70
				c0,0.6-0.2,1-0.5,1.4c-0.3,0.3-0.8,0.5-1.3,0.5c-0.6,0-1-0.2-1.3-0.5c-0.3-0.3-0.5-0.8-0.5-1.4v-4.2c0-0.6,0.2-1,0.5-1.4
				c0.3-0.3,0.8-0.5,1.3-0.5C121.1,64,121.6,64.1,121.9,64.5z"/>
			<path d="M130.3,71.8h-1.2v-3.3h-1.4v3.3h-1.2v-7.7h1.2v3.2h1.4v-3.2h1.2V71.8z"/>
			<path d="M138.1,65.2H136v2.2h1.7v1.1H136v2.3h2.1v1.1h-3.3v-7.7h3.3V65.2z"/>
			<path d="M145,64.4c0.3,0.3,0.4,0.7,0.4,1.3v0.2l-1.1,0.1v-0.3c0-0.2-0.1-0.4-0.2-0.5c-0.1-0.1-0.2-0.2-0.4-0.2
				c-0.2,0-0.3,0.1-0.4,0.2c-0.1,0.1-0.2,0.3-0.2,0.5v0.1c0,0.2,0.1,0.5,0.2,0.7c0.1,0.2,0.4,0.5,0.8,0.8c0.5,0.5,0.9,0.9,1.1,1.2
				c0.2,0.4,0.3,0.8,0.3,1.2v0.4c0,0.5-0.2,1-0.5,1.3c-0.3,0.3-0.8,0.4-1.3,0.4c-0.6,0-1-0.1-1.3-0.4c-0.3-0.3-0.5-0.7-0.5-1.3v-0.5
				l1.1-0.1v0.5c0,0.5,0.2,0.7,0.7,0.7c0.4,0,0.7-0.2,0.7-0.7v-0.3c0-0.2-0.1-0.5-0.2-0.7c-0.1-0.2-0.4-0.5-0.8-0.8
				c-0.5-0.4-0.9-0.8-1.1-1.2c-0.2-0.4-0.3-0.8-0.3-1.2v-0.2c0-0.5,0.1-1,0.4-1.3c0.3-0.3,0.7-0.4,1.3-0.4
				C144.3,64,144.7,64.1,145,64.4z"/>
		</g>
	</g>
	<path d="M0,0h20.4v6.7H7.3v13.6h10.6V27H7.3v14.3h13.2V48H0V0z M167.5,6.7h-13.2v13.6h10.6V27h-10.6v14.3h13.2V48H147V0h20.4V6.7z
		 M87.4,48h-9.4L70,0h7.4l5.4,36.6h0.1L88.3,0h7.3L87.4,48z"/>
	
		<linearGradient id="SVGID_1_" gradientUnits="userSpaceOnUse" x1="-1823.0653" y1="-9497.1055" x2="-1802.0038" y2="-9497.1055" gradientTransform="matrix(0 1 -1 0 -9448.3145 1836.9447)">
		<stop  offset="3.817830e-02" style="stop-color:#7E5321"/>
		<stop  offset="9.128577e-02" style="stop-color:#825724"/>
		<stop  offset="0.1726" style="stop-color:#8F6331"/>
		<stop  offset="0.2721" style="stop-color:#A5784A"/>
		<stop  offset="0.3848" style="stop-color:#C69B71"/>
		<stop  offset="0.4764" style="stop-color:#ECC39E"/>
		<stop  offset="0.5333" style="stop-color:#E1B78E"/>
		<stop  offset="0.6436" style="stop-color:#C99C6D"/>
		<stop  offset="0.7883" style="stop-color:#AB7A40"/>
		<stop  offset="0.8463" style="stop-color:#B27F47"/>
		<stop  offset="0.9403" style="stop-color:#C58F5A"/>
		<stop  offset="1" style="stop-color:#D69E6A"/>
	</linearGradient>
	<rect x="48.2" y="13.9" class="st0" width="1.1" height="21.1"/>
	
		<linearGradient id="SVGID_2_" gradientUnits="userSpaceOnUse" x1="-1823.7267" y1="-9568.6201" x2="-1802.665" y2="-9568.6201" gradientTransform="matrix(0 1 -1 0 -9448.3145 1836.9447)">
		<stop  offset="3.817830e-02" style="stop-color:#7E5321"/>
		<stop  offset="9.128577e-02" style="stop-color:#825724"/>
		<stop  offset="0.1726" style="stop-color:#8F6331"/>
		<stop  offset="0.2721" style="stop-color:#A5784A"/>
		<stop  offset="0.3848" style="stop-color:#C69B71"/>
		<stop  offset="0.4764" style="stop-color:#ECC39E"/>
		<stop  offset="0.5333" style="stop-color:#E1B78E"/>
		<stop  offset="0.6436" style="stop-color:#C99C6D"/>
		<stop  offset="0.7883" style="stop-color:#AB7A40"/>
		<stop  offset="0.8463" style="stop-color:#B27F47"/>
		<stop  offset="0.9403" style="stop-color:#C58F5A"/>
		<stop  offset="1" style="stop-color:#D69E6A"/>
	</linearGradient>
	<rect x="119.7" y="13.2" class="st1" width="1.1" height="21.1"/>
</g>
</svg>
